<svg width="1349" height="675" xmlns="http://www.w3.org/2000/svg"><g><path d="M-56,-48L-127,127L179,97Z" fill="#ffffd4" stroke="#ffffd4"/><path d="M-56,-48L179,97L175,-94Z" fill="#fff9db" stroke="#fff9db"/><path d="M-56,-48L175,-94L327,-157Z" fill="#fff6d4" stroke="#fff6d4"/><path d="M175,-94L179,97L380,100Z" fill="#fff0b8" stroke="#fff0b8"/><path d="M175,-94L380,100L327,-157Z" fill="#ffecbe" stroke="#ffecbe"/><path d="M327,-157L380,100L450,18Z" fill="#ffe6b1" stroke="#ffe6b1"/><path d="M327,-157L450,18L536,-141Z" fill="#ffe3a9" stroke="#ffe3a9"/><path d="M327,-157L536,-141L1580,-182Z" fill="#f3ba8c" stroke="#f3ba8c"/><path d="M536,-141L450,18L764,-73Z" fill="#ffd59c" stroke="#ffd59c"/><path d="M536,-141L764,-73L1047,-71Z" fill="#f6be8e" stroke="#f6be8e"/><path d="M536,-141L1047,-71L1580,-182Z" fill="#d6a083" stroke="#d6a083"/><path d="M764,-73L450,18L645,177Z" fill="#ffd189" stroke="#ffd189"/><path d="M764,-73L645,177L880,49Z" fill="#f7c17c" stroke="#f7c17c"/><path d="M764,-73L880,49L944,-20Z" fill="#efb489" stroke="#efb489"/><path d="M764,-73L944,-20L1047,-71Z" fill="#eaad86" stroke="#eaad86"/><path d="M944,-20L880,49L1167,175Z" fill="#dea66c" stroke="#dea66c"/><path d="M944,-20L1167,175L1047,-71Z" fill="#d6a178" stroke="#d6a178"/><path d="M1047,-71L1167,175L1315,-29Z" fill="#c59577" stroke="#c59577"/><path d="M1047,-71L1315,-29L1580,-182Z" fill="#b18880" stroke="#b18880"/><path d="M1315,-29L1167,175L1371,56Z" fill="#b58a67" stroke="#b58a67"/><path d="M1315,-29L1371,56L1580,-182Z" fill="#a28080" stroke="#a28080"/><path d="M1580,-182L1371,56L1548,99Z" fill="#978080" stroke="#978080"/><path d="M1580,-182L1548,99L1582,524Z" fill="#8d7d4b" stroke="#8d7d4b"/><path d="M1580,-182L1582,524L1584,939Z" fill="#8b4013" stroke="#8b4013"/><path d="M-127,127L-175,505L-119,312Z" fill="#ffe09c" stroke="#ffe09c"/><path d="M-127,127L-119,312L123,280Z" fill="#fff19c" stroke="#fff19c"/><path d="M-127,127L123,280L179,97Z" fill="#fff7a5" stroke="#fff7a5"/><path d="M179,97L123,280L293,371Z" fill="#ffe377" stroke="#ffe377"/><path d="M179,97L293,371L380,100Z" fill="#ffe67c" stroke="#ffe67c"/><path d="M380,100L293,371L520,308Z" fill="#ffd357" stroke="#ffd357"/><path d="M380,100L520,308L645,177Z" fill="#ffd45c" stroke="#ffd45c"/><path d="M380,100L645,177L450,18Z" fill="#ffde80" stroke="#ffde80"/><path d="M645,177L520,308L642,242Z" fill="#ffc546" stroke="#ffc546"/><path d="M645,177L642,242L944,257Z" fill="#f9b940" stroke="#f9b940"/><path d="M645,177L944,257L880,49Z" fill="#f3b551" stroke="#f3b551"/><path d="M880,49L944,257L1167,175Z" fill="#dea14b" stroke="#dea14b"/><path d="M1167,175L944,257L1142,248Z" fill="#d29332" stroke="#d29332"/><path d="M1167,175L1142,248L1337,362Z" fill="#bf7e28" stroke="#bf7e28"/><path d="M1167,175L1337,362L1371,56Z" fill="#b48239" stroke="#b48239"/><path d="M1371,56L1337,362L1548,99Z" fill="#a27a42" stroke="#a27a42"/><path d="M1548,99L1337,362L1516,361Z" fill="#9b6a25" stroke="#9b6a25"/><path d="M1548,99L1516,361L1582,524Z" fill="#905d1b" stroke="#905d1b"/><path d="M-119,312L-175,505L115,447Z" fill="#ffc187" stroke="#ffc187"/><path d="M-119,312L115,447L123,280Z" fill="#ffd67c" stroke="#ffd67c"/><path d="M123,280L115,447L293,371Z" fill="#ffc766" stroke="#ffc766"/><path d="M293,371L115,447L253,548Z" fill="#fdaa5b" stroke="#fdaa5b"/><path d="M293,371L253,548L431,553Z" fill="#f29a4b" stroke="#f29a4b"/><path d="M293,371L431,553L520,308Z" fill="#ffa941" stroke="#ffa941"/><path d="M520,308L431,553L708,426Z" fill="#ff9732" stroke="#ff9732"/><path d="M520,308L708,426L642,242Z" fill="#ffb034" stroke="#ffb034"/><path d="M642,242L708,426L944,257Z" fill="#f7a32e" stroke="#f7a32e"/><path d="M944,257L708,426L881,562Z" fill="#f17a1e" stroke="#f17a1e"/><path d="M944,257L881,562L1074,579Z" fill="#de5e17" stroke="#de5e17"/><path d="M944,257L1074,579L1142,248Z" fill="#d6751b" stroke="#d6751b"/><path d="M1142,248L1074,579L1337,362Z" fill="#c45d16" stroke="#c45d16"/><path d="M1337,362L1074,579L1319,565Z" fill="#aa3b12" stroke="#aa3b12"/><path d="M1337,362L1319,565L1516,361Z" fill="#a64013" stroke="#a64013"/><path d="M1516,361L1319,565L1582,524Z" fill="#903112" stroke="#903112"/><path d="M-175,505L-49,952L-83,756Z" fill="#a2808b" stroke="#a2808b"/><path d="M-175,505L-83,756L51,642Z" fill="#c38e86" stroke="#c38e86"/><path d="M-175,505L51,642L115,447Z" fill="#e5a67c" stroke="#e5a67c"/><path d="M115,447L51,642L253,548Z" fill="#e09a67" stroke="#e09a67"/><path d="M253,548L51,642L356,630Z" fill="#cc875b" stroke="#cc875b"/><path d="M253,548L356,630L431,553Z" fill="#d68548" stroke="#d68548"/><path d="M431,553L356,630L562,730Z" fill="#c27039" stroke="#c27039"/><path d="M431,553L562,730L754,636Z" fill="#c1632e" stroke="#c1632e"/><path d="M431,553L754,636L708,426Z" fill="#e2752a" stroke="#e2752a"/><path d="M708,426L754,636L881,562Z" fill="#d86320" stroke="#d86320"/><path d="M881,562L754,636L926,632Z" fill="#bc4a1b" stroke="#bc4a1b"/><path d="M881,562L926,632L1074,579Z" fill="#b64217" stroke="#b64217"/><path d="M1074,579L926,632L1137,756Z" fill="#952c15" stroke="#952c15"/><path d="M1074,579L1137,756L1306,648Z" fill="#811e13" stroke="#811e13"/><path d="M1074,579L1306,648L1319,565Z" fill="#8d2712" stroke="#8d2712"/><path d="M1319,565L1306,648L1552,646Z" fill="#6f1312" stroke="#6f1312"/><path d="M1319,565L1552,646L1582,524Z" fill="#6f1c12" stroke="#6f1c12"/><path d="M1582,524L1552,646L1584,939Z" fill="#3a0012" stroke="#3a0012"/><path d="M-83,756L-49,952L94,961Z" fill="#80807e" stroke="#80807e"/><path d="M-83,756L94,961L51,642Z" fill="#927e79" stroke="#927e79"/><path d="M51,642L94,961L356,630Z" fill="#9f7563" stroke="#9f7563"/><path d="M356,630L94,961L358,941Z" fill="#7f6f54" stroke="#7f6f54"/><path d="M356,630L358,941L529,827Z" fill="#8d653e" stroke="#8d653e"/><path d="M356,630L529,827L562,730Z" fill="#a45f36" stroke="#a45f36"/><path d="M562,730L529,827L727,949Z" fill="#82532c" stroke="#82532c"/><path d="M562,730L727,949L754,636Z" fill="#964c26" stroke="#964c26"/><path d="M754,636L727,949L863,869Z" fill="#7e3f20" stroke="#7e3f20"/><path d="M754,636L863,869L926,632Z" fill="#9c361c" stroke="#9c361c"/><path d="M926,632L863,869L1137,756Z" fill="#7f2817" stroke="#7f2817"/><path d="M1137,756L863,869L1153,957Z" fill="#572115" stroke="#572115"/><path d="M1137,756L1153,957L1259,828Z" fill="#441512" stroke="#441512"/><path d="M1137,756L1259,828L1306,648Z" fill="#5d1012" stroke="#5d1012"/><path d="M1306,648L1259,828L1552,646Z" fill="#550312" stroke="#550312"/><path d="M1552,646L1259,828L1584,939Z" fill="#290012" stroke="#290012"/><path d="M94,961L1153,957L727,949Z" fill="#7f4e28" stroke="#7f4e28"/><path d="M94,961L727,949L358,941Z" fill="#7f6642" stroke="#7f6642"/><path d="M358,941L727,949L529,827Z" fill="#7f5a32" stroke="#7f5a32"/><path d="M727,949L1153,957L863,869Z" fill="#6b2e18" stroke="#6b2e18"/><path d="M1153,957L1584,939L1259,828Z" fill="#2f0612" stroke="#2f0612"/></g></svg>