<?xml version="1.0" encoding="utf-8"?>
<!-- Generator: Adobe Illustrator 18.0.0, SVG Export Plug-In . SVG Version: 6.00 Build 0)  -->
<!DOCTYPE svg PUBLIC "-//W3C//DTD SVG 1.1//EN" "http://www.w3.org/Graphics/SVG/1.1/DTD/svg11.dtd">
<svg version="1.1" id="Layer_1" xmlns="http://www.w3.org/2000/svg" xmlns:xlink="http://www.w3.org/1999/xlink" x="0px" y="0px"
	 viewBox="0 0 1349 675" enable-background="new 0 0 1349 675" xml:space="preserve">
<g>
	<g>
		<g>
			<path fill="#FFFFD4" stroke="#FFFFD4" d="M-48.5-118.5l-66.1,153.4L170.1,8.6L-48.5-118.5z"/>
			<path fill="#FFF9DB" stroke="#FFF9DB" d="M-48.5-118.5L170.1,8.6l-3.7-167.5L-48.5-118.5z"/>
			<path fill="#FFF0B8" stroke="#FFF0B8" d="M166.4-158.9l3.7,167.5l187,2.6L166.4-158.9z"/>
			<path fill="#FFECBE" stroke="#FFECBE" d="M166.4-158.9L357.1,11.2l-49.3-225.3L166.4-158.9z"/>
			<path fill="#FFE6B1" stroke="#FFE6B1" d="M307.8-214.1l49.3,225.3l65.1-71.9L307.8-214.1z"/>
			<path fill="#FFD189" stroke="#FFD189" d="M714.3-140.5L422.2-60.7L603.6,78.7L714.3-140.5z"/>
			<path fill="#F7C17C" stroke="#F7C17C" d="M714.3-140.5L603.6,78.7L822.2-33.5L714.3-140.5z"/>
			<path fill="#DEA66C" stroke="#DEA66C" d="M881.8-94l-59.5,60.5l267,110.5L881.8-94z"/>
			<path fill="#D6A178" stroke="#D6A178" d="M881.8-94l207.5,171L977.6-138.7L881.8-94z"/>
			<path fill="#C59577" stroke="#C59577" d="M977.6-138.7L1089.2,77l137.7-178.9L977.6-138.7z"/>
			<path fill="#B58A67" stroke="#B58A67" d="M1226.9-101.9L1089.2,77L1279-27.4L1226.9-101.9z"/>
			<path fill="#978080" stroke="#978080" d="M1473.4-236L1279-27.4l164.7,37.7L1473.4-236z"/>
			<path fill="#FFF19C" stroke="#FFF19C" d="M-114.6,34.9l7.4,162.2L118,169L-114.6,34.9z"/>
			<path fill="#FFF7A5" stroke="#FFF7A5" d="M-114.6,34.9L118,169L170.1,8.6L-114.6,34.9z"/>
			<path fill="#FFE377" stroke="#FFE377" d="M170.1,8.6L118,169l158.2,79.8L170.1,8.6z"/>
			<path fill="#FFE67C" stroke="#FFE67C" d="M170.1,8.6l106.1,240.2l80.9-237.6L170.1,8.6z"/>
			<path fill="#FFD357" stroke="#FFD357" d="M357.1,11.2l-80.9,237.6l211.2-55.2L357.1,11.2z"/>
			<path fill="#FFD45C" stroke="#FFD45C" d="M357.1,11.2l130.2,182.4L603.6,78.7L357.1,11.2z"/>
			<path fill="#FFDE80" stroke="#FFDE80" d="M357.1,11.2l246.5,67.5L422.2-60.7L357.1,11.2z"/>
			<path fill="#FFC546" stroke="#FFC546" d="M603.6,78.7L487.3,193.6l113.5-57.9L603.6,78.7z"/>
			<path fill="#F9B940" stroke="#F9B940" d="M603.6,78.7l-2.8,57l280.9,13.2L603.6,78.7z"/>
			<path fill="#F3B551" stroke="#F3B551" d="M603.6,78.7l278.2,70.1L822.2-33.5L603.6,78.7z"/>
			<path fill="#DEA14B" stroke="#DEA14B" d="M822.2-33.5l59.5,182.4L1089.2,77L822.2-33.5z"/>
			<path fill="#D29332" stroke="#D29332" d="M1089.2,77l-207.5,71.9L1066,141L1089.2,77z"/>
			<path fill="#BF7E28" stroke="#BF7E28" d="M1089.2,77l-23.3,64l181.4,99.9L1089.2,77z"/>
			<path fill="#B48239" stroke="#B48239" d="M1089.2,77l158.2,163.9L1279-27.4L1089.2,77z"/>
			<path fill="#A27A42" stroke="#A27A42" d="M1279-27.4l-31.6,268.3l196.3-230.6L1279-27.4z"/>
			<path fill="#9B6A25" stroke="#9B6A25" d="M1443.7,10.3l-196.3,230.6l166.5-0.9L1443.7,10.3z"/>
			<path fill="#FFC187" stroke="#FFC187" d="M-107.1,197.1l-52.1,169.2l269.8-50.9L-107.1,197.1z"/>
			<path fill="#FFD67C" stroke="#FFD67C" d="M-107.1,197.1l217.7,118.4L118,169L-107.1,197.1z"/>
			<path fill="#FFC766" stroke="#FFC766" d="M118,169l-7.4,146.4l165.6-66.6L118,169z"/>
			<path fill="#FDAA5B" stroke="#FDAA5B" d="M276.1,248.8l-165.6,66.6L238.9,404L276.1,248.8z"/>
			<path fill="#F29A4B" stroke="#F29A4B" d="M276.1,248.8L238.9,404l165.6,4.4L276.1,248.8z"/>
			<path fill="#FFA941" stroke="#FFA941" d="M276.1,248.8l128.4,159.6l82.8-214.8L276.1,248.8z"/>
			<path fill="#FF9732" stroke="#FF9732" d="M487.3,193.6l-82.8,214.8L662.2,297L487.3,193.6z"/>
			<path fill="#FFB034" stroke="#FFB034" d="M487.3,193.6L662.2,297l-61.4-161.3L487.3,193.6z"/>
			<path fill="#F7A32E" stroke="#F7A32E" d="M600.8,135.7L662.2,297l219.6-148.2L600.8,135.7z"/>
			<path fill="#F17A1E" stroke="#F17A1E" d="M881.8,148.9L662.2,297l160.9,119.2L881.8,148.9z"/>
			<path fill="#DE5E17" stroke="#DE5E17" d="M881.8,148.9l-58.6,267.4l179.5,14.9L881.8,148.9z"/>
			<path fill="#D6751B" stroke="#D6751B" d="M881.8,148.9l120.9,282.3L1066,141L881.8,148.9z"/>
			<path fill="#C45D16" stroke="#C45D16" d="M1066,141l-63.3,290.2l244.7-190.3L1066,141z"/>
			<path fill="#AA3B12" stroke="#AA3B12" d="M1247.4,240.9l-244.7,190.3l227.9-12.3L1247.4,240.9z"/>
			<path fill="#A64013" stroke="#A64013" d="M1247.4,240.9l-16.7,178L1413.9,240L1247.4,240.9z"/>
			<path fill="#903112" stroke="#903112" d="M1413.9,240l-183.3,178.9l244.7-35.9L1413.9,240z"/>
			<path fill="#C38E86" stroke="#C38E86" d="M-159.2,366.3l85.6,220.1L51,486.4L-159.2,366.3z"/>
			<path fill="#E5A67C" stroke="#E5A67C" d="M-159.2,366.3L51,486.4l59.5-171L-159.2,366.3z"/>
			<path fill="#E09A67" stroke="#E09A67" d="M110.5,315.4L51,486.4L238.9,404L110.5,315.4z"/>
			<path fill="#CC875B" stroke="#CC875B" d="M238.9,404L51,486.4l283.7-10.5L238.9,404z"/>
			<path fill="#D68548" stroke="#D68548" d="M238.9,404l95.8,71.9l69.8-67.5L238.9,404z"/>
			<path fill="#C27039" stroke="#C27039" d="M404.5,408.4l-69.8,67.5l191.6,87.7L404.5,408.4z"/>
			<path fill="#C1632E" stroke="#C1632E" d="M404.5,408.4l121.9,155.2L705,481.1L404.5,408.4z"/>
			<path fill="#E2752A" stroke="#E2752A" d="M404.5,408.4L705,481.1L662.2,297L404.5,408.4z"/>
			<path fill="#D86320" stroke="#D86320" d="M662.2,297L705,481.1l118.1-64.9L662.2,297z"/>
			<path fill="#BC4A1B" stroke="#BC4A1B" d="M823.2,416.3L705,481.1l160-3.5L823.2,416.3z"/>
			<path fill="#B64217" stroke="#B64217" d="M823.2,416.3l41.9,61.4l137.7-46.5L823.2,416.3z"/>
			<path fill="#952C15" stroke="#952C15" d="M1002.7,431.2L865,477.6l196.3,108.7L1002.7,431.2z"/>
			<path fill="#811E13" stroke="#811E13" d="M1002.7,431.2l58.6,155.2l157.2-94.7L1002.7,431.2z"/>
			<path fill="#8D2712" stroke="#8D2712" d="M1002.7,431.2l215.8,60.5l12.1-72.8L1002.7,431.2z"/>
			<path fill="#6F1312" stroke="#6F1312" d="M1230.6,418.9l-12.1,72.8l228.9-1.8L1230.6,418.9z"/>
			<path fill="#6F1C12" stroke="#6F1C12" d="M1230.6,418.9l216.8,71l27.9-107L1230.6,418.9z"/>
			<path fill="#80807E" stroke="#80807E" d="M-73.7,586.3L-42,758.2l133,7.9L-73.7,586.3z"/>
			<path fill="#927E79" stroke="#927E79" d="M-73.7,586.3L91,766.1L51,486.4L-73.7,586.3z"/>
			<path fill="#9F7563" stroke="#9F7563" d="M51,486.4l40,279.7l243.7-290.2L51,486.4z"/>
			<path fill="#7F6F54" stroke="#7F6F54" d="M334.8,475.9L91,766.1l245.6-17.5L334.8,475.9z"/>
			<path fill="#8D653E" stroke="#8D653E" d="M334.8,475.9l1.9,272.7l159.1-99.9L334.8,475.9z"/>
			<path fill="#A45F36" stroke="#A45F36" d="M334.8,475.9l160.9,172.7l30.7-85L334.8,475.9z"/>
			<path fill="#82532C" stroke="#82532C" d="M526.4,563.5l-30.7,85l184.2,107L526.4,563.5z"/>
			<path fill="#964C26" stroke="#964C26" d="M526.4,563.5l153.5,192L705,481.1L526.4,563.5z"/>
			<path fill="#7E3F20" stroke="#7E3F20" d="M705,481.1l-25.1,274.4l126.5-70.1L705,481.1z"/>
			<path fill="#9C361C" stroke="#9C361C" d="M705,481.1l101.4,204.3L865,477.6L705,481.1z"/>
			<path fill="#7F2817" stroke="#7F2817" d="M865,477.6l-58.6,207.8l254.9-99.1L865,477.6z"/>
			<path fill="#572115" stroke="#572115" d="M1061.3,586.3l-254.9,99.1l269.8,77.2L1061.3,586.3z"/>
			<path fill="#441512" stroke="#441512" d="M1061.3,586.3l14.9,176.2l98.6-113.1L1061.3,586.3z"/>
			<path fill="#5D1012" stroke="#5D1012" d="M1061.3,586.3l113.5,63.1l43.7-157.8L1061.3,586.3z"/>
			<path fill="#550312" stroke="#550312" d="M1218.5,491.7l-43.7,157.8l272.6-159.6L1218.5,491.7z"/>
			<path fill="#290012" stroke="#290012" d="M1447.4,489.9l-272.6,159.6l302.3,97.3L1447.4,489.9z"/>
			<path fill="#7F5A32" stroke="#7F5A32" d="M336.6,748.5l343.3,7l-184.2-107L336.6,748.5z"/>
			<path fill="#2F0612" stroke="#2F0612" d="M1076.2,762.6l401-15.8l-302.3-97.3L1076.2,762.6z"/>
		</g>
	</g>
</g>
</svg>
