<?xml version="1.0" encoding="utf-8"?>
<!-- Generator: Adobe Illustrator 18.0.0, SVG Export Plug-In . SVG Version: 6.00 Build 0)  -->
<!DOCTYPE svg PUBLIC "-//W3C//DTD SVG 1.1//EN" "http://www.w3.org/Graphics/SVG/1.1/DTD/svg11.dtd">
<svg version="1.1" id="Layer_1" xmlns="http://www.w3.org/2000/svg" xmlns:xlink="http://www.w3.org/1999/xlink" x="0px" y="0px"
	 viewBox="0 0 303 303" enable-background="new 0 0 303 303" xml:space="preserve">
<g id="XMLID_1_">
	<g>
		<path fill="#8A5F2A" d="M301.5,10.5v282c0,5-4,9-9,9h-282c-5,0-9-4-9-9v-282c0-5,4-9,9-9h282C297.5,1.5,301.5,5.5,301.5,10.5z
			 M246.5,276.9v-80h-80v80H246.5z M188.8,124.5V2.5h-74.6v122H188.8z M136.3,276.9v-80h-80v80H136.3z"/>
		<path fill="#D09666" d="M246.5,196.9v80h-80v-80H246.5z M208.2,234.6h21.4c0-6.4-2.6-12.2-6.8-16.3c-4.2-4.2-10-6.8-16.3-6.8
			s-12.2,2.6-16.3,6.8c-4.2,4.2-6.8,10-6.8,16.3h21.4v21.1c0,2.4-1.6,3.4-5.1,3.4c-2.7,0-3.8-1-3.8-3.4c0-3.1-0.6-4.4-1.9-4.4
			s-1.9,1.3-1.9,4.4c0,4.8,2.3,6.9,7.6,6.9c5.9,0,8.5-2.1,8.5-6.9V234.6z"/>
		<path fill="#281100" d="M229.6,234.6h-21.4h-3.4h-21.4c0-6.4,2.6-12.2,6.8-16.3c4.2-4.2,10-6.8,16.3-6.8s12.2,2.6,16.3,6.8
			C227,222.5,229.6,228.2,229.6,234.6z"/>
		<rect x="204.8" y="234.6" fill="#281100" width="3.4" height="21.1"/>
		<path fill="#281100" d="M204.8,255.7h3.4c0,4.8-2.6,6.9-8.5,6.9c-5.3,0-7.6-2.1-7.6-6.9c0-3.1,0.6-4.4,1.9-4.4s1.9,1.3,1.9,4.4
			c0,2.4,1.2,3.4,3.8,3.4C203.3,259.1,204.8,258.1,204.8,255.7z"/>
		<rect x="114.2" y="2.5" fill="#E29F26" width="74.6" height="122"/>
		<path fill="#D09666" d="M136.3,196.9v80h-80v-80H136.3z M126.2,270.7v-8.1h-12V226h3.2l-8-20.8l-8,20.8h3.2v36.5H89.4V226h3.2
			l-8-20.8l-8,20.8h3.2v36.5H66.3v8.1H126.2z"/>
		<polygon fill="#281100" points="126.2,262.5 126.2,270.7 66.3,270.7 66.3,262.5 79.8,262.5 89.4,262.5 104.6,262.5 114.2,262.5 		
			"/>
		<polygon fill="#281100" points="109.4,205.2 117.4,226 114.2,226 104.6,226 101.4,226 		"/>
		<rect x="104.6" y="226" fill="#281100" width="9.6" height="36.5"/>
		<polygon fill="#281100" points="84.6,205.2 92.6,226 89.4,226 79.8,226 76.6,226 		"/>
		<rect x="79.8" y="226" fill="#281100" width="9.6" height="36.5"/>
	</g>
	<g>
		<path fill="none" stroke="#000000" stroke-width="3" stroke-miterlimit="10" d="M292.5,301.5h-282c-5,0-9-4-9-9v-282c0-5,4-9,9-9
			h282c5,0,9,4,9,9v282C301.5,297.5,297.5,301.5,292.5,301.5z"/>
	</g>
</g>
</svg>
