<?xml version="1.0" encoding="utf-8"?>
<!-- Generator: Adobe Illustrator 18.0.0, SVG Export Plug-In . SVG Version: 6.00 Build 0)  -->
<!DOCTYPE svg PUBLIC "-//W3C//DTD SVG 1.1//EN" "http://www.w3.org/Graphics/SVG/1.1/DTD/svg11.dtd">
<svg version="1.1" id="Layer_1" xmlns="http://www.w3.org/2000/svg" xmlns:xlink="http://www.w3.org/1999/xlink" x="0px" y="0px"
	 viewBox="0 0 306 306" enable-background="new 0 0 306 306" xml:space="preserve">
<path fill="#867260" stroke="#D1D3D4" stroke-width="2" stroke-miterlimit="10" d="M293,303H13c-5.5,0-10-4.5-10-10V13
	C3,7.5,7.5,3,13,3h280c5.5,0,10,4.5,10,10v280C303,298.5,298.5,303,293,303z"/>
<g id="XMLID_1_">
	<g>
		<path fill="#3D3D3E" d="M187.9,108.8c0-27.6,43.2-75.8,68-75.8c3.7,0,10,14,10,22c0,35.7-9.3,97.8-14.6,97.8
			c0,22.4-6,61.5-9.4,61.5c0,15.1-34.3,41.4-54.1,41.4v0.2c0,6-22.7,16.3-36.9,17c-14.2-0.7-36.9-11-36.9-17v-0.2
			c-19.7,0-54.1-26.3-54.1-41.4c-3.4,0-9.4-39.1-9.4-61.5c-5.3,0-14.6-62.1-14.6-97.8c0-8,6.4-22,10-22c24.8,0,68,48.1,68,75.8
			c0-3.3,20.6-9.1,32.4-9.1c0.9,0,2,0,3,0c0,0,1.4,0,3,0c1,0,2.2,0,3,0C167.4,99.7,187.9,105.4,187.9,108.8z"/>
	</g>
	<g>
	</g>
</g>
<path fill="none" stroke="#000000" stroke-width="2" stroke-linecap="round" stroke-miterlimit="10" d="M114.2,192.9
	c-28.5,0-78-9.5-78-14.9"/>
<path fill="none" stroke="#000000" stroke-width="2" stroke-linecap="round" stroke-miterlimit="10" d="M107.6,212.7
	c-20,0-54.9,7.1-54.9,11.2"/>
<path fill="none" stroke="#000000" stroke-width="2" stroke-linecap="round" stroke-miterlimit="10" d="M114.2,200.7
	c-24.8,0-68-1.2-68-1.9"/>
<path fill="none" stroke="#000000" stroke-width="2" stroke-linecap="round" stroke-miterlimit="10" d="M191.8,193.5
	c28.5,0,78-9.5,78-14.9"/>
<path fill="none" stroke="#000000" stroke-width="2" stroke-linecap="round" stroke-miterlimit="10" d="M195.7,212.7
	c20,0,54.9,7.1,54.9,11.2"/>
<path fill="none" stroke="#000000" stroke-width="2" stroke-linecap="round" stroke-miterlimit="10" d="M191.8,201.3
	c24.8,0,68-1.2,68-1.9"/>
<text transform="matrix(1 0 0 1 115.3026 218.8262)" fill="#FFFFFF" font-family="'FranklinGothic-Demi'" font-size="136">?</text>
</svg>
