<?xml version="1.0" encoding="utf-8"?>
<!-- Generator: Adobe Illustrator 18.0.0, SVG Export Plug-In . SVG Version: 6.00 Build 0)  -->
<!DOCTYPE svg PUBLIC "-//W3C//DTD SVG 1.1//EN" "http://www.w3.org/Graphics/SVG/1.1/DTD/svg11.dtd">
<svg version="1.1" id="Layer_1" xmlns="http://www.w3.org/2000/svg" xmlns:xlink="http://www.w3.org/1999/xlink" x="0px" y="0px"
	 viewBox="0 0 306 306" enable-background="new 0 0 306 306" xml:space="preserve">
<path fill="#867260" stroke="#D1D3D4" stroke-width="2" stroke-miterlimit="10" d="M293,303H13c-5.5,0-10-4.5-10-10V13
	C3,7.5,7.5,3,13,3h280c5.5,0,10,4.5,10,10v280C303,298.5,298.5,303,293,303z"/>
<path fill="#222223" d="M178.9,176.7H26.3c-5,0-9-4-9-9V27.4c0-5,4-9,9-9h152.6c5,0,9,4,9,9v140.4
	C187.9,172.7,183.8,176.7,178.9,176.7z"/>
<path fill="#383839" d="M178.9,184.1H26.3v0c0-4.3,3.5-7.7,7.7-7.7h137.1C175.4,176.4,178.9,179.8,178.9,184.1L178.9,184.1z"/>
<rect x="27.3" y="28.4" width="150.6" height="138.4"/>
<path fill="#383839" d="M195.5,141.9V23.4c0-2.8,2.2-5,5-5h84.9c2.8,0,5,2.2,5,5v118.6c0,2.8-2.2,5-5,5h-84.9
	C197.7,146.9,195.5,144.7,195.5,141.9z"/>
<rect x="22" y="197" fill="#383839" width="261.9" height="90.4"/>
<path fill="#3D3D3E" d="M263.8,163v16.5c0,5.5-4.5,10-10,10h-26.3c-10.2,0-18.5-8.3-18.5-18.5v0c0-9.9,8.1-18,18-18h26.8
	C259.3,153,263.8,157.5,263.8,163z"/>
<path fill="#545456" d="M208.9,163v16.5c0,5.5,4.5,10,10,10H229V153h-10.1C213.4,153,208.9,157.5,208.9,163z"/>
<path fill="#CBCCCE" d="M208.9,171.3L208.9,171.3c0,1.2,1,2.1,2.1,2.1h15.8c1.2,0,2.1-1,2.1-2.1l0,0c0-1.2-1-2.1-2.1-2.1h-15.8
	C209.9,169.1,208.9,170.1,208.9,171.3z"/>
<rect x="195.5" y="28.4" width="94.9" height="25.5"/>
<path fill="#867260" d="M199.6,139.3v-7.5h86.7v7.5c0,1.7-1.3,3-3,3h-80.7C200.9,142.3,199.6,141,199.6,139.3z"/>
<path fill="#565759" d="M199.6,118.6V91.3c0-2.8,2.2-5,5-5h76.7c2.8,0,5,2.2,5,5v27.3c0,2.8-2.2,5-5,5h-76.7
	C201.8,123.6,199.6,121.4,199.6,118.6z"/>
<path d="M230.4,77.9v-15c0-2.8,2.2-5,5-5h15c2.8,0,5,2.2,5,5v15c0,2.8-2.2,5-5,5h-15C232.7,82.9,230.4,80.7,230.4,77.9z"/>
<line fill="none" stroke="#FFFFFF" stroke-width="3" stroke-linecap="round" stroke-miterlimit="10" x1="242.9" y1="64.4" x2="242.9" y2="70.4"/>
<path fill="none" stroke="#FFFFFF" stroke-width="3" stroke-linecap="round" stroke-miterlimit="10" d="M242.9,77.6
	c4.1,0,7.5-3.2,7.5-7.2"/>
<path fill="none" stroke="#FFFFFF" stroke-width="3" stroke-linecap="round" stroke-miterlimit="10" d="M242.9,77.6
	c-4.1,0-7.5-3.2-7.5-7.2"/>
<path fill="none" stroke="#FFFFFF" stroke-width="3" stroke-linecap="round" stroke-miterlimit="10" d="M235.5,70.4
	c0-1.9,1.1-5.1,1.7-5.1"/>
<path fill="none" stroke="#FFFFFF" stroke-width="3" stroke-linecap="round" stroke-miterlimit="10" d="M250.4,70.4
	c0-1.9-0.9-5.1-1.4-5.1"/>
<rect x="30.9" y="206" fill="#565759" width="168" height="72.7"/>
<rect x="209.3" y="206" fill="#565759" width="67.2" height="72.7"/>
</svg>
