<?xml version="1.0" encoding="utf-8"?>
<!-- Generator: Adobe Illustrator 18.0.0, SVG Export Plug-In . SVG Version: 6.00 Build 0)  -->
<!DOCTYPE svg PUBLIC "-//W3C//DTD SVG 1.1//EN" "http://www.w3.org/Graphics/SVG/1.1/DTD/svg11.dtd">
<svg version="1.1" id="Layer_1" xmlns="http://www.w3.org/2000/svg" xmlns:xlink="http://www.w3.org/1999/xlink" x="0px" y="0px"
	 viewBox="0 0 306 306" enable-background="new 0 0 306 306" xml:space="preserve">
<path fill="#867260" stroke="#E6E7E8" stroke-width="2" stroke-miterlimit="10" d="M293,303H13c-5.5,0-10-4.5-10-10V13
	C3,7.5,7.5,3,13,3h280c5.5,0,10,4.5,10,10v280C303,298.5,298.5,303,293,303z"/>
<g id="XMLID_1_">
	<g>
		<path fill="#434345" d="M273.9,247.3c-4.5-4-10.5-6.5-17-6.5v-2.5h15.4c2,1.9,3,3,5,5v4H273.9z"/>
		<path fill="#C4C6C8" d="M256.9,126.9c0,0,0-0.1,1.1-3.8h12.9c0.7,1.1,1,2.4,1,3.8c0,2.1-0.8,3.9-2.2,5.3c-1.4,1.4-3.2,2.2-5.3,2.2
			c-2.1,0-3.9-0.8-5.3-2.2C257.7,130.8,256.9,128.9,256.9,126.9z"/>
		<path fill="#C4C6C8" d="M270.8,123.1h-12.9c0.3-0.5,0.7-1,1.1-1.5c1.4-1.4,3.2-2.2,5.3-2.2C267.1,119.4,269.5,120.9,270.8,123.1z"
			/>
		<path fill="#5F6062" d="M241.3,266.2c0-4.1,1.7-7.9,4.4-10.6c2.7-2.7,6.5-4.4,10.6-4.4c4.1,0,7.9,1.7,10.6,4.4
			c2.7,2.7,4.4,6.5,4.4,10.6c0,4.1-1.7,7.9-4.4,10.6c-2.7,2.7-6.5,4.4-10.6,4.4C248.1,281.2,241.3,274.5,241.3,266.2z"/>
		<polygon fill="#434345" points="271.2,177.9 287.4,190.9 287.4,210 271.2,222.5 264.4,222.5 264.4,216.2 269.8,216.2 279.3,209.1 
			279.3,192.4 271.2,190.9 271.2,178.9 		"/>
		<polygon fill="#867260" points="249.4,192.4 257.5,190.9 271.2,190.9 279.3,192.4 279.3,209.1 269.8,216.2 264.4,216.2 259,216.2 
			249.4,209.1 		"/>
		<path fill="#434345" d="M176.1,247.3h-10.8c4.5-4,10.5-6.5,17-6.5H257c6.5,0,12.5,2.5,17,6.5H264c-2-0.7-4.2-1.1-6.5-1.1h-75
			C180.3,246.2,178.1,246.6,176.1,247.3z"/>
		<path fill="#434345" d="M249.4,126.9c0-4.1,1.7-7.9,4.4-10.6c0.8-0.8,1.8-1.6,2.8-2.2v9h1.4c-1.1,3.7-1.1,3.8-1.1,3.8
			c0,2.1,0.8,3.9,2.2,5.3c1.4,1.4,3.2,2.2,5.3,2.2c2.1,0,3.9-0.8,5.3-2.2c1.4-1.4,2.2-3.2,2.2-5.3c0-1.4-0.4-2.7-1-3.8h1.4v-9
			c4.3,2.6,7.2,7.4,7.2,12.8c0,4.1-1.7,7.9-4.4,10.6c-1.1,1.1-2.4,2-3.8,2.8v-1.7h-13.6v1.7c-1.4-0.7-2.7-1.7-3.8-2.8
			C251,134.8,249.4,131,249.4,126.9z"/>
		<polygon fill="#434345" points="249.4,192.4 249.4,209.1 259,216.2 264.4,216.2 264.4,222.5 257.5,222.5 241.3,210 241.3,190.9 
			257.5,177.9 257.5,178.9 257.5,190.9 		"/>
		<rect x="257.5" y="178.9" fill="#8A8C8E" width="13.6" height="12"/>
		<rect x="257.5" y="177.9" fill="#8A8C8E" width="13.6" height="1"/>
		<path fill="#C4C6C8" d="M257.5,140.2l6.8,1.6c2.5,0,4.8-0.6,6.8-1.6v37.6h-13.6V140.2z"/>
		<path fill="#464547" d="M264.4,141.9l-6.8-1.6v-1.7h13.6v1.7C269.1,141.3,266.8,141.9,264.4,141.9z"/>
		<path fill="#434345" d="M257.9,123.1h-1.4v-9c2.3-1.4,5-2.2,7.8-2.2c2.9,0,5.5,0.8,7.8,2.2v9h-1.4c-1.3-2.2-3.7-3.7-6.5-3.7
			c-2.1,0-3.9,0.8-5.3,2.2C258.6,122,258.2,122.5,257.9,123.1z"/>
		<path fill="#464547" d="M256.5,54.9h15.6v59.2c-2.3-1.4-4.9-2.2-7.8-2.2c-2.9,0-5.5,0.8-7.8,2.2V54.9z"/>
		<path fill="#95979A" d="M254.4,39.9v-10c0-2.8,2.2-5,5-5h10c2.8,0,5,2.2,5,5v10c0,2.8-2.2,5-5,5h-10
			C256.6,44.9,254.4,42.6,254.4,39.9z"/>
		<path fill="#434345" d="M254.4,29.9v10c0,2.8,2.2,5,5,5h10c2.8,0,5-2.2,5-5v-10c0-2.8-2.2-5-5-5h-10
			C256.6,24.9,254.4,27.1,254.4,29.9z M256.5,54.9h-2.2c-5.5,0-10-4.5-10-10v-20c0-5.5,4.5-10,10-10h20c5.5,0,10,4.5,10,10v20
			c0,5.5-4.5,10-10,10h-2.2H256.5z"/>
		<path fill="#5F6062" d="M204.6,266.2c0-4.1,1.7-7.9,4.4-10.6c2.7-2.7,6.5-4.4,10.6-4.4c4.1,0,7.9,1.7,10.6,4.4
			c2.7,2.7,4.4,6.5,4.4,10.6c0,4.1-1.7,7.9-4.4,10.6c-2.7,2.7-6.5,4.4-10.6,4.4C211.3,281.2,204.6,274.5,204.6,266.2z"/>
		<polygon fill="#545456" points="218.1,60.2 218.1,59.2 218.1,47.2 226.2,45.6 226.2,29 216.7,21.8 211.3,21.8 211.3,15.6 
			218.1,15.6 234.3,28.1 234.3,47.2 		"/>
		<path fill="#C4C6C8" d="M203.8,111.2c0-2.1,0.8-3.9,2.2-5.3s3.2-2.2,5.3-2.2c2.1,0,3.9,0.8,5.3,2.2c1.4,1.4,2.2,3.2,2.2,5.3
			c0,1.4-0.4,2.7-1.1,3.8h-12.9C204.2,113.9,203.8,112.6,203.8,111.2z"/>
		<path fill="#C4C6C8" d="M204.9,115h12.9c-0.3,0.5-0.7,1-1.1,1.5c-1.4,1.4-3.2,2.2-5.3,2.2C208.6,118.7,206.1,117.2,204.9,115z"/>
		<path fill="#545456" d="M218.1,99.5h-13.6v-1.7c2-1.1,4.4-1.6,6.8-1.6s4.8,0.6,6.8,1.6V99.5z"/>
		<path fill="#C4C6C8" d="M204.5,60.2h13.6v37.6c-2-1.1-4.4-1.6-6.8-1.6s-4.8,0.6-6.8,1.6V60.2z"/>
		<rect x="204.5" y="59.1" fill="#8A8C8E" width="13.6" height="1"/>
		<rect x="204.5" y="47.2" fill="#8A8C8E" width="13.6" height="11.9"/>
		<path fill="#8A8C8E" d="M203.5,183.2V124c2.3,1.4,4.9,2.2,7.8,2.2c2.9,0,5.6-0.8,7.8-2.2v59.2H203.5z"/>
		<path fill="#545456" d="M206,105.9c-1.4,1.4-2.2,3.2-2.2,5.3c0,1.4,0.4,2.7,1.1,3.8h-1.4v9c-4.3-2.6-7.2-7.4-7.2-12.8
			c0-4.1,1.7-7.9,4.4-10.6c1.1-1.1,2.4-2,3.8-2.8v1.7h13.6v-1.7l3.8,2.8c2.7,2.7,4.4,6.5,4.4,10.6s-1.7,7.9-4.4,10.6
			c-0.8,0.8-1.8,1.6-2.8,2.2v-9h-1.4c0.7-1.1,1.1-2.4,1.1-3.8c0-2.1-0.8-3.9-2.2-5.3c-1.4-1.4-3.2-2.2-5.3-2.2
			C209.2,103.7,207.4,104.5,206,105.9z"/>
		<path fill="#545456" d="M203.5,124v-9h1.4c1.3,2.2,3.7,3.7,6.4,3.7c2.1,0,3.9-0.8,5.3-2.2c0.4-0.5,0.8-1,1.1-1.5h1.4v9
			c-2.3,1.4-5,2.2-7.8,2.2C208.4,126.2,205.8,125.4,203.5,124z"/>
		<path fill="#8A8C8E" d="M201.3,208.2v-10c0-2.8,2.2-5,5-5h10c2.8,0,5,2.2,5,5v10c0,2.8-2.2,5-5,5h-10
			C203.5,213.2,201.3,210.9,201.3,208.2z"/>
		<path fill="#B8BABC" d="M256.3,281.2c4.1,0,7.9-1.7,10.6-4.4c2.7-2.7,4.4-6.5,4.4-10.6c0-4.1-1.7-7.9-4.4-10.6
			c-2.7-2.7-6.5-4.4-10.6-4.4c-4.1,0-7.9,1.7-10.6,4.4c-2.7,2.7-4.4,6.5-4.4,10.6C241.3,274.5,248.1,281.2,256.3,281.2z
			 M219.6,281.2c4.1,0,7.9-1.7,10.6-4.4c2.7-2.7,4.4-6.5,4.4-10.6c0-4.1-1.7-7.9-4.4-10.6c-2.7-2.7-6.5-4.4-10.6-4.4
			c-4.1,0-7.9,1.7-10.6,4.4c-2.7,2.7-4.4,6.5-4.4,10.6C204.6,274.5,211.3,281.2,219.6,281.2z M176.1,247.3h88
			c7.9,2.7,13.5,10.1,13.5,18.9c0,5.5-2.2,10.5-5.9,14.1c-3.6,3.6-8.6,5.9-14.1,5.9h-75c-11,0-20-8.9-20-20c0-5.5,2.2-10.5,5.9-14.1
			C170.5,250,173.1,248.3,176.1,247.3z M198.8,266.2c0-4.1-1.7-7.9-4.4-10.6c-2.7-2.7-6.5-4.4-10.6-4.4c-4.1,0-7.9,1.7-10.6,4.4
			c-2.7,2.7-4.4,6.5-4.4,10.6c0,8.3,6.7,15,15,15c4.1,0,7.9-1.7,10.6-4.4C197.1,274.1,198.8,270.4,198.8,266.2z"/>
		<polygon fill="#867260" points="218.1,47.2 204.5,47.2 196.4,45.6 196.4,29 205.9,21.8 211.3,21.8 216.7,21.8 226.2,29 
			226.2,45.6 		"/>
		<path fill="#95979A" d="M168.8,266.2c0-4.1,1.7-7.9,4.4-10.6c2.7-2.7,6.5-4.4,10.6-4.4c4.1,0,7.9,1.7,10.6,4.4
			c2.7,2.7,4.4,6.5,4.4,10.6c0,4.1-1.7,7.9-4.4,10.6c-2.7,2.7-6.5,4.4-10.6,4.4C175.5,281.2,168.8,274.5,168.8,266.2z"/>
		<path fill="#434345" d="M191.3,213.2v-20c0-5.5,4.5-10,10-10h2.2h15.7h2.2c5.5,0,10,4.5,10,10v20c0,5.5-4.5,10-10,10h-20
			C195.8,223.2,191.3,218.7,191.3,213.2z M201.3,198.2v10c0,2.8,2.2,5,5,5h10c2.8,0,5-2.2,5-5v-10c0-2.8-2.2-5-5-5h-10
			C203.5,193.2,201.3,195.4,201.3,198.2z"/>
		<polygon fill="#545456" points="204.5,47.2 204.5,59.2 204.5,60.2 188.3,47.2 188.3,28.1 204.5,15.6 211.3,15.6 211.3,21.8 
			205.9,21.8 196.4,29 196.4,45.6 		"/>
		<path fill="#434345" d="M264,247.3h-88c2-0.7,4.2-1.1,6.5-1.1h75C259.8,246.2,262,246.6,264,247.3z"/>
		<path fill="#464547" d="M51.8,200.5h128.9v3.7c0,5.5-4.5,10-10,10H61.8c-5.5,0-10-4.5-10-10V200.5z"/>
		<path fill="#464547" d="M156.8,266.2c0-7,2.8-13.4,7.4-18c0.3-0.3,0.7-0.6,1-0.9h10.8c-2.9,1-5.5,2.6-7.7,4.8
			c-3.6,3.6-5.9,8.6-5.9,14.1c0,11.1,9,20,20,20h75c5.5,0,10.5-2.2,14.1-5.9c3.6-3.6,5.9-8.6,5.9-14.1c0-8.8-5.6-16.2-13.5-18.9h9.9
			c5.2,4.6,8.4,11.4,8.4,18.9c0,7-2.8,13.4-7.4,18s-11,7.4-18,7.4h-74.7C168.2,291.7,156.8,280.3,156.8,266.2z"/>
		<path fill="#434345" d="M166.8,238.3H257v2.5h-74.7c-6.5,0-12.5,2.5-17,6.5h-3.5v-4C163.7,241.4,164.8,240.3,166.8,238.3z"/>
		<path fill="#464547" d="M139.8,242.1v4h-3.4c-4.5-4.1-10.4-6.5-17-6.5v-2.5h15.4C136.8,239,137.9,240.1,139.8,242.1z"/>
		<path fill="#95979A" d="M103.8,265c0-4.1,1.7-7.9,4.4-10.6c2.7-2.7,6.5-4.4,10.6-4.4c4.1,0,7.9,1.7,10.6,4.4
			c2.7,2.7,4.4,6.5,4.4,10.6c0,4.1-1.7,7.9-4.4,10.6c-2.7,2.7-6.5,4.4-10.6,4.4C110.6,280,103.8,273.3,103.8,265z"/>
		<path fill="#434345" d="M38.6,246.1H27.8c4.5-4.1,10.5-6.5,17-6.5h74.7c6.5,0,12.5,2.4,17,6.5h-9.9c-2-0.7-4.2-1.1-6.5-1.1h-75
			C42.8,245,40.6,245.4,38.6,246.1z"/>
		<path d="M116.3,121.3c0-1.7,1.3-3,3-3h7.2c1.6,0,3,1.3,3,3v6.2c0,1.7-1.4,3-3,3h-7.2c-1.7,0-3-1.3-3-3V121.3z"/>
		<path d="M116.3,108.2v-5.7c0-1.7,1.3-3,3-3h7.2c1.6,0,3,1.3,3,3v5.7c0,1.7-1.4,3-3,3h-7.2C117.6,111.2,116.3,109.8,116.3,108.2z"
			/>
		<path fill="#5F6062" d="M92.7,254.4c2.7,2.7,4.4,6.5,4.4,10.6c0,4.1-1.7,7.9-4.4,10.6c-2.7,2.7-6.5,4.4-10.6,4.4
			c-8.3,0-15-6.7-15-15c0-4.1,1.7-7.9,4.4-10.6c2.7-2.7,6.5-4.4,10.6-4.4C86.3,250,90,251.7,92.7,254.4z"/>
		<path d="M107.7,108.5v13c0,5-4,9-9,9H74c-5,0-9-4-9-9v-13c0-5,4-9,9-9h24.6C103.6,99.5,107.7,103.5,107.7,108.5z"/>
		<path fill="#B8BABC" d="M97.1,265c0-4.1-1.7-7.9-4.4-10.6c-2.7-2.7-6.5-4.4-10.6-4.4c-4.1,0-7.9,1.7-10.6,4.4
			c-2.7,2.7-4.4,6.5-4.4,10.6c0,8.3,6.7,15,15,15c4.2,0,7.9-1.7,10.6-4.4C95.4,272.9,97.1,269.1,97.1,265z M118.8,280
			c4.1,0,7.9-1.7,10.6-4.4c2.7-2.7,4.4-6.5,4.4-10.6c0-4.1-1.7-7.9-4.4-10.6c-2.7-2.7-6.5-4.4-10.6-4.4c-4.1,0-7.9,1.7-10.6,4.4
			c-2.7,2.7-4.4,6.5-4.4,10.6C103.8,273.3,110.6,280,118.8,280z M61.3,265c0-4.1-1.7-7.9-4.4-10.6c-2.7-2.7-6.5-4.4-10.6-4.4
			c-4.1,0-7.9,1.7-10.6,4.4c-2.7,2.7-4.4,6.5-4.4,10.6c0,8.3,6.7,15,15,15c4.1,0,7.9-1.7,10.6-4.4C59.6,272.9,61.3,269.1,61.3,265z
			 M25.1,265c0-5.5,2.2-10.5,5.9-14.1c2.1-2.1,4.7-3.8,7.7-4.8h88c7.9,2.7,13.5,10.1,13.5,18.9c0,5.5-2.2,10.5-5.9,14.1
			c-3.6,3.6-8.6,5.9-14.1,5.9h-75C34,285,25.1,276,25.1,265z"/>
		<path fill="#5F6062" d="M31.3,265c0-4.1,1.7-7.9,4.4-10.6c2.7-2.7,6.5-4.4,10.6-4.4c4.1,0,7.9,1.7,10.6,4.4
			c2.7,2.7,4.4,6.5,4.4,10.6c0,4.1-1.7,7.9-4.4,10.6c-2.7,2.7-6.5,4.4-10.6,4.4C38,280,31.3,273.3,31.3,265z"/>
		<rect x="51.8" y="149.3" fill="#5F6062" width="128.9" height="51.3"/>
		<path fill="#464547" d="M107.7,121.5v-13c0-5-4-9-9-9H74c-5,0-9,4-9,9v13c0,5,4,9,9,9h24.6C103.6,130.5,107.7,126.4,107.7,121.5z
			 M116.3,102.5v5.7c0,1.7,1.3,3,3,3h7.2c1.6,0,3-1.3,3-3v-5.7c0-1.7-1.4-3-3-3h-7.2C117.6,99.5,116.3,100.8,116.3,102.5z
			 M116.3,121.3v6.2c0,1.7,1.3,3,3,3h7.2c1.6,0,3-1.3,3-3v-6.2c0-1.7-1.4-3-3-3h-7.2C117.6,118.3,116.3,119.6,116.3,121.3z
			 M51.8,149.3V89.4h128.9v59.9H51.8z"/>
		<rect x="51.8" y="88.3" fill="#464547" width="128.9" height="1"/>
		<path fill="#95979A" d="M51.8,88.3v-9.4c0-27.6,22.4-50,50-50h28.9c27.6,0,50,22.4,50,50v9.4H51.8z"/>
		<path fill="#434345" d="M126.5,246.1h-88c2-0.7,4.2-1.1,6.5-1.1h75C122.3,245,124.5,245.4,126.5,246.1z"/>
		<path fill="#464547" d="M27.8,246.1h10.8c-2.9,1-5.5,2.6-7.7,4.8c-3.6,3.6-5.9,8.6-5.9,14.1c0,11.1,8.9,20,20,20h75
			c5.5,0,10.5-2.2,14.1-5.9c3.6-3.6,5.9-8.6,5.9-14.1c0-8.8-5.7-16.2-13.5-18.9h9.9c5.2,4.6,8.5,11.4,8.5,18.9c0,7-2.8,13.4-7.4,18
			c-4.6,4.6-11,7.5-18,7.5H44.8c-14,0-25.4-11.4-25.4-25.4c0-7,2.9-13.4,7.4-18C27.1,246.7,27.5,246.4,27.8,246.1z"/>
		<path fill="#434345" d="M44.8,239.6c-6.5,0-12.5,2.4-17,6.5h-3.5v-4c2-2,3-3.1,5-5h90.2v2.5H44.8z"/>
		<rect x="24.7" y="44.2" fill="#515254" width="6.6" height="96.4"/>
		<polygon fill="#464547" points="21.9,214.2 21.9,140.6 24.7,140.6 31.3,140.6 34.1,140.6 34.1,214.2 		"/>
		<path fill="#ABADB0" d="M31.3,44.2h-6.6h-3.3c-1.1,0-2-0.9-2-2V34c0-2.8,2.2-5,5-5h7.3c2.8,0,5,2.2,5,5v8.2c0,1.1-0.9,2-2,2H31.3z
			"/>
	</g>
	<g>
		
			<line fill="none" stroke="#000000" stroke-width="3" stroke-linecap="round" stroke-linejoin="round" x1="211.3" y1="15.6" x2="211.3" y2="21.8"/>
		
			<line fill="none" stroke="#000000" stroke-width="3" stroke-linecap="round" stroke-linejoin="round" x1="264.4" y1="216.2" x2="264.4" y2="222.5"/>
	</g>
</g>
</svg>
